<mxfile host="app.diagrams.net" modified="2022-10-25T15:45:35.306Z" agent="5.0 (Windows NT 10.0; Win64; x64) AppleWebKit/537.36 (KHTML, like Gecko) Chrome/106.0.0.0 Safari/537.36 Edg/106.0.1370.52" etag="PHmY4_M4Borq5hB1w7kO" version="20.5.1" type="github">
  <diagram id="h5pwwdKbG2Jl_nYU-IXc" name="Trang-1">
    <mxGraphModel dx="782" dy="460" grid="1" gridSize="10" guides="1" tooltips="1" connect="1" arrows="1" fold="1" page="1" pageScale="1" pageWidth="1654" pageHeight="2336" math="0" shadow="0">
      <root>
        <mxCell id="0" />
        <mxCell id="1" parent="0" />
        <mxCell id="BYn05KG9jJ5op-IyuwJ6-1" value="XE CHỞ KHÁCH" style="swimlane;fontStyle=0;childLayout=stackLayout;horizontal=1;startSize=26;fillColor=#dae8fc;horizontalStack=0;resizeParent=1;resizeParentMax=0;resizeLast=0;collapsible=1;marginBottom=0;strokeColor=#6c8ebf;" vertex="1" parent="1">
          <mxGeometry x="518" y="160" width="160" height="80" as="geometry" />
        </mxCell>
        <mxCell id="BYn05KG9jJ5op-IyuwJ6-2" value="+ số xe&#xa;+ hiệu xe&#xa;+ số chỗ ngồi" style="text;strokeColor=none;fillColor=none;align=left;verticalAlign=top;spacingLeft=4;spacingRight=4;overflow=hidden;rotatable=0;points=[[0,0.5],[1,0.5]];portConstraint=eastwest;" vertex="1" parent="BYn05KG9jJ5op-IyuwJ6-1">
          <mxGeometry y="26" width="160" height="54" as="geometry" />
        </mxCell>
        <mxCell id="BYn05KG9jJ5op-IyuwJ6-5" value="THÀNH PHỐ" style="swimlane;fontStyle=0;childLayout=stackLayout;horizontal=1;startSize=26;fillColor=#dae8fc;horizontalStack=0;resizeParent=1;resizeParentMax=0;resizeLast=0;collapsible=1;marginBottom=0;strokeColor=#6c8ebf;" vertex="1" parent="1">
          <mxGeometry x="518" y="560" width="160" height="70" as="geometry" />
        </mxCell>
        <mxCell id="BYn05KG9jJ5op-IyuwJ6-6" value="+ mã số thành phố&#xa;+ tên thành phố" style="text;strokeColor=none;fillColor=none;align=left;verticalAlign=top;spacingLeft=4;spacingRight=4;overflow=hidden;rotatable=0;points=[[0,0.5],[1,0.5]];portConstraint=eastwest;" vertex="1" parent="BYn05KG9jJ5op-IyuwJ6-5">
          <mxGeometry y="26" width="160" height="44" as="geometry" />
        </mxCell>
        <mxCell id="BYn05KG9jJ5op-IyuwJ6-7" value="CHI NHÁNH" style="swimlane;fontStyle=0;childLayout=stackLayout;horizontal=1;startSize=26;fillColor=#dae8fc;horizontalStack=0;resizeParent=1;resizeParentMax=0;resizeLast=0;collapsible=1;marginBottom=0;strokeColor=#6c8ebf;" vertex="1" parent="1">
          <mxGeometry x="518" y="400" width="160" height="70" as="geometry" />
        </mxCell>
        <mxCell id="BYn05KG9jJ5op-IyuwJ6-8" value="+ mã chi nhánh&#xa;+ tên chi nhánh" style="text;strokeColor=none;fillColor=none;align=left;verticalAlign=top;spacingLeft=4;spacingRight=4;overflow=hidden;rotatable=0;points=[[0,0.5],[1,0.5]];portConstraint=eastwest;" vertex="1" parent="BYn05KG9jJ5op-IyuwJ6-7">
          <mxGeometry y="26" width="160" height="44" as="geometry" />
        </mxCell>
        <mxCell id="BYn05KG9jJ5op-IyuwJ6-9" value="PHÂN CÔNG XE" style="swimlane;fontStyle=0;childLayout=stackLayout;horizontal=1;startSize=26;fillColor=#dae8fc;horizontalStack=0;resizeParent=1;resizeParentMax=0;resizeLast=0;collapsible=1;marginBottom=0;strokeColor=#6c8ebf;" vertex="1" parent="1">
          <mxGeometry x="840" y="280" width="160" height="100" as="geometry" />
        </mxCell>
        <mxCell id="BYn05KG9jJ5op-IyuwJ6-10" value="+ ngày tháng năm&#xa;+ giờ quy định&#xa;+ số ngày &#xa;+ giờ lái" style="text;strokeColor=none;fillColor=none;align=left;verticalAlign=top;spacingLeft=4;spacingRight=4;overflow=hidden;rotatable=0;points=[[0,0.5],[1,0.5]];portConstraint=eastwest;" vertex="1" parent="BYn05KG9jJ5op-IyuwJ6-9">
          <mxGeometry y="26" width="160" height="74" as="geometry" />
        </mxCell>
        <mxCell id="BYn05KG9jJ5op-IyuwJ6-11" value="TÀI XẾ" style="swimlane;fontStyle=0;childLayout=stackLayout;horizontal=1;startSize=26;fillColor=#dae8fc;horizontalStack=0;resizeParent=1;resizeParentMax=0;resizeLast=0;collapsible=1;marginBottom=0;strokeColor=#6c8ebf;" vertex="1" parent="1">
          <mxGeometry x="200" y="280" width="160" height="80" as="geometry" />
        </mxCell>
        <mxCell id="BYn05KG9jJ5op-IyuwJ6-12" value="+ mã số tài xế&#xa;+ tên tài xế&#xa;+ số điện thoại di động" style="text;strokeColor=none;fillColor=none;align=left;verticalAlign=top;spacingLeft=4;spacingRight=4;overflow=hidden;rotatable=0;points=[[0,0.5],[1,0.5]];portConstraint=eastwest;" vertex="1" parent="BYn05KG9jJ5op-IyuwJ6-11">
          <mxGeometry y="26" width="160" height="54" as="geometry" />
        </mxCell>
        <mxCell id="BYn05KG9jJ5op-IyuwJ6-14" value="" style="endArrow=none;html=1;rounded=0;entryX=0.496;entryY=1;entryDx=0;entryDy=0;entryPerimeter=0;exitX=0.5;exitY=0;exitDx=0;exitDy=0;" edge="1" parent="1" source="BYn05KG9jJ5op-IyuwJ6-7" target="BYn05KG9jJ5op-IyuwJ6-2">
          <mxGeometry width="50" height="50" relative="1" as="geometry">
            <mxPoint x="558" y="345" as="sourcePoint" />
            <mxPoint x="608" y="295" as="targetPoint" />
          </mxGeometry>
        </mxCell>
        <mxCell id="BYn05KG9jJ5op-IyuwJ6-21" value="(1-1)" style="edgeLabel;html=1;align=center;verticalAlign=middle;resizable=0;points=[];" vertex="1" connectable="0" parent="BYn05KG9jJ5op-IyuwJ6-14">
          <mxGeometry x="0.7665" y="-3" relative="1" as="geometry">
            <mxPoint x="16" y="-5" as="offset" />
          </mxGeometry>
        </mxCell>
        <mxCell id="BYn05KG9jJ5op-IyuwJ6-22" value="(1-n)" style="edgeLabel;html=1;align=center;verticalAlign=middle;resizable=0;points=[];" vertex="1" connectable="0" parent="BYn05KG9jJ5op-IyuwJ6-14">
          <mxGeometry x="-0.5208" relative="1" as="geometry">
            <mxPoint x="21" y="22" as="offset" />
          </mxGeometry>
        </mxCell>
        <mxCell id="BYn05KG9jJ5op-IyuwJ6-17" value="" style="endArrow=none;html=1;rounded=0;entryX=1;entryY=0.5;entryDx=0;entryDy=0;exitX=0.004;exitY=0.604;exitDx=0;exitDy=0;exitPerimeter=0;" edge="1" parent="1" source="BYn05KG9jJ5op-IyuwJ6-10" target="BYn05KG9jJ5op-IyuwJ6-2">
          <mxGeometry width="50" height="50" relative="1" as="geometry">
            <mxPoint x="710" y="355" as="sourcePoint" />
            <mxPoint x="760" y="305" as="targetPoint" />
            <Array as="points">
              <mxPoint x="760" y="350" />
              <mxPoint x="760" y="213" />
            </Array>
          </mxGeometry>
        </mxCell>
        <mxCell id="BYn05KG9jJ5op-IyuwJ6-19" value="(1-1)" style="edgeLabel;html=1;align=center;verticalAlign=middle;resizable=0;points=[];" vertex="1" connectable="0" parent="BYn05KG9jJ5op-IyuwJ6-17">
          <mxGeometry x="0.7998" y="2" relative="1" as="geometry">
            <mxPoint x="-8" y="-11" as="offset" />
          </mxGeometry>
        </mxCell>
        <mxCell id="BYn05KG9jJ5op-IyuwJ6-20" value="(1-1)" style="edgeLabel;html=1;align=center;verticalAlign=middle;resizable=0;points=[];" vertex="1" connectable="0" parent="BYn05KG9jJ5op-IyuwJ6-17">
          <mxGeometry x="-0.8889" y="-1" relative="1" as="geometry">
            <mxPoint y="-10" as="offset" />
          </mxGeometry>
        </mxCell>
        <mxCell id="BYn05KG9jJ5op-IyuwJ6-18" value="" style="endArrow=none;html=1;rounded=0;exitX=1;exitY=0.5;exitDx=0;exitDy=0;entryX=0.25;entryY=0;entryDx=0;entryDy=0;" edge="1" parent="1" source="BYn05KG9jJ5op-IyuwJ6-12" target="BYn05KG9jJ5op-IyuwJ6-7">
          <mxGeometry width="50" height="50" relative="1" as="geometry">
            <mxPoint x="470" y="370" as="sourcePoint" />
            <mxPoint x="520" y="320" as="targetPoint" />
            <Array as="points">
              <mxPoint x="440" y="333" />
              <mxPoint x="558" y="333" />
            </Array>
          </mxGeometry>
        </mxCell>
        <mxCell id="BYn05KG9jJ5op-IyuwJ6-23" value="(1-1)" style="edgeLabel;html=1;align=center;verticalAlign=middle;resizable=0;points=[];" vertex="1" connectable="0" parent="BYn05KG9jJ5op-IyuwJ6-18">
          <mxGeometry x="-0.834" y="-1" relative="1" as="geometry">
            <mxPoint y="-11" as="offset" />
          </mxGeometry>
        </mxCell>
        <mxCell id="BYn05KG9jJ5op-IyuwJ6-24" value="(1-n)" style="edgeLabel;html=1;align=center;verticalAlign=middle;resizable=0;points=[];" vertex="1" connectable="0" parent="BYn05KG9jJ5op-IyuwJ6-18">
          <mxGeometry x="0.839" relative="1" as="geometry">
            <mxPoint x="-19" y="6" as="offset" />
          </mxGeometry>
        </mxCell>
        <mxCell id="BYn05KG9jJ5op-IyuwJ6-25" value="" style="endArrow=none;html=1;rounded=0;exitX=0.5;exitY=0;exitDx=0;exitDy=0;" edge="1" parent="1" source="BYn05KG9jJ5op-IyuwJ6-5">
          <mxGeometry width="50" height="50" relative="1" as="geometry">
            <mxPoint x="550" y="530" as="sourcePoint" />
            <mxPoint x="598" y="470" as="targetPoint" />
          </mxGeometry>
        </mxCell>
        <mxCell id="BYn05KG9jJ5op-IyuwJ6-26" value="(1-1)" style="edgeLabel;html=1;align=center;verticalAlign=middle;resizable=0;points=[];" vertex="1" connectable="0" parent="BYn05KG9jJ5op-IyuwJ6-25">
          <mxGeometry x="0.7037" y="-1" relative="1" as="geometry">
            <mxPoint x="20" as="offset" />
          </mxGeometry>
        </mxCell>
        <mxCell id="BYn05KG9jJ5op-IyuwJ6-27" value="(1-1)" style="edgeLabel;html=1;align=center;verticalAlign=middle;resizable=0;points=[];" vertex="1" connectable="0" parent="BYn05KG9jJ5op-IyuwJ6-25">
          <mxGeometry x="-0.4963" y="-2" relative="1" as="geometry">
            <mxPoint x="20" y="10" as="offset" />
          </mxGeometry>
        </mxCell>
      </root>
    </mxGraphModel>
  </diagram>
</mxfile>
